<svg width="48" height="48" viewBox="0 0 48 48" fill="none" xmlns="http://www.w3.org/2000/svg">
  <rect width="48" height="48" rx="16" fill="#EF4444"/>
  <path d="M24 34C23.74 34 23.48 33.93 23.27 33.78C20.14 31.5 17.76 29.18 16.09 26.9C14.32 24.48 13.5 22.18 13.5 19.9C13.5 16.32 16.46 13.5 20.05 13.5C21.93 13.5 23.68 14.33 24.96 15.74C26.24 14.33 27.99 13.5 29.87 13.5C33.46 13.5 36.42 16.32 36.42 19.9C36.42 22.18 35.6 24.48 33.83 26.9C32.16 29.19 29.79 31.51 26.65 33.78C26.44 33.93 26.18 34 25.92 34H24Z" fill="white"/>
</svg>
